<svg xmlns="http://www.w3.org/2000/svg" viewBox="0 0 20 20" version="1.1" fill-rule="evenodd">
<path d="M10 0C4.477 0 0 4.477 0 10s4.477 10 10 10 10-4.477 10-10S15.523 0 10 0zm5.12 10.89L13.79 10l1.33-.89v1.78zm-4.59 3.77v-2.48l2.305-1.54 1.86 1.243-4.164 2.776zM10 11.256L8.12 10 10 8.743 11.88 10 10 11.257zm-.53 3.402L5.305 11.88l1.86-1.242 2.304 1.54v2.48zM4.88 9.11l1.33.89-1.33.89V9.11zm4.59-3.77v2.48L7.164 9.36l-1.86-1.243L9.47 5.34zm1.06 0l4.165 2.777-1.86 1.244-2.304-1.54V5.34zm5.648 2.707c0-.008-.003-.015-.004-.023-.003-.015-.005-.03-.01-.045 0-.01-.005-.02-.007-.03l-.014-.04-.012-.03c0-.02-.01-.03-.01-.04l-.01-.03-.02-.04-.02-.03-.02-.03-.02-.02-.03-.03-.02-.02s0-.01-.01-.01L10.3 3.9c-.18-.12-.41-.12-.59 0L4.052 7.675l-.008.007c-.01.01-.016.017-.024.02l-.03.028-.02.02c-.01.01-.02.02-.02.03l-.02.02-.02.03-.01.026-.02.035c-.002.01-.01.02-.01.03-.005.01-.01.03-.014.04l-.01.03-.01.05v.03c-.004.03-.006.05-.006.07V12l.01.044.01.023.012.04.01.02c.005.01.01.025.017.037l.01.022.02.038c0 .01.01.02.02.027l.02.03.02.02.03.03.02.02.01.01 5.65 3.77c.09.06.19.09.29.09.1 0 .21-.03.3-.09l5.65-3.77v-.01c.01 0 .01-.01.02-.02l.04-.03.02-.02.03-.03.01-.02c.01-.01.02-.02.02-.03l.01-.02.02-.03.013-.02.02-.04.01-.02.01-.05v-3.9c0-.02 0-.04-.006-.07z"></path>
</svg>